<?xml version="1.0" encoding="UTF-8"?>
<svg id="Layer_1" data-name="Layer 1" width="30px" height="30px" xmlns="http://www.w3.org/2000/svg" xmlns:xlink="http://www.w3.org/1999/xlink" viewBox="0 0 29.77 29.77">
  <defs>
    <style>
      .cls-1 {
        fill: url(#linear-gradient);
      }

      .cls-2 {
        fill: #fff;
      }
    </style>
    <linearGradient id="linear-gradient" x1="14.88" y1="-45.33" x2="14.88" y2="116.55" gradientUnits="userSpaceOnUse">
      <stop offset="0" stop-color="#428e96"/>
      <stop offset="1" stop-color="#293e74"/>
    </linearGradient>
  </defs>
  <rect class="cls-1" width="29.77" height="29.77"/>
  <path class="cls-2" d="m18.6,5.45h-7.44c-.66,0-1.2.54-1.2,1.2v16.46c0,.66.54,1.2,1.2,1.2h7.44c.66,0,1.2-.54,1.2-1.2V6.65c0-.66-.54-1.2-1.2-1.2Zm-5.43.82h3.42c.19,0,.34.15.34.34s-.15.34-.34.34h-3.42c-.19,0-.34-.15-.34-.34s.15-.34.34-.34Zm1.71,16.4c-.45,0-.82-.37-.82-.82s.37-.82.82-.82.82.37.82.82-.37.82-.82.82Zm4.1-2.46h-8.2V7.91h8.2v12.3Z"/>
</svg>