<?xml version="1.0" encoding="UTF-8"?>
<svg id="Layer_1" data-name="Layer 1" width="30px" height="30px" xmlns="http://www.w3.org/2000/svg" xmlns:xlink="http://www.w3.org/1999/xlink" viewBox="0 0 29.77 29.77">
  <defs>
    <style>
      .cls-1 {
        fill: url(#linear-gradient);
      }

      .cls-2 {
        fill: #fff;
      }
    </style>
    <linearGradient id="linear-gradient" x1="14.88" y1="-10.62" x2="14.88" y2="151.26" gradientUnits="userSpaceOnUse">
      <stop offset="0" stop-color="#428e96"/>
      <stop offset="1" stop-color="#293e74"/>
    </linearGradient>
  </defs>
  <rect class="cls-1" width="29.77" height="29.77"/>
  <g id="_9" data-name="9">
    <path class="cls-2" d="m12.9,12.04c-.11-.62,0-.74,0-.74l1.47-.96c.38-.23.54-.71.36-1.13l-1.14-2.69c-.17-.39-.6-.6-1.01-.49l-1.1.3c-.09.03-.19.06-.27.12-2.58,1.62-1.75,6.17-.07,10.16,1.64,3.88,4.38,7.86,7.35,7.03.08-.02.16-.06.24-.1l1-.58c.37-.21.52-.67.35-1.06l-1.14-2.69c-.17-.41-.63-.64-1.06-.52l-1.72.39s-.61-.02-2.16-3.67c-.55-1.3-.85-2.2-1.01-2.81-.06-.22-.1-.4-.12-.56"/>
  </g>
</svg>


