<?xml version="1.0" encoding="UTF-8"?>
<svg id="Layer_1" data-name="Layer 1" width="30px" height="30px" xmlns="http://www.w3.org/2000/svg" xmlns:xlink="http://www.w3.org/1999/xlink" viewBox="0 0 29.77 29.77">
  <defs>
    <style>
      .cls-1 {
        fill: url(#linear-gradient);
      }

      .cls-2 {
        fill: #fff;
      }
    </style>
    <linearGradient id="linear-gradient" x1="14.88" y1="-154.37" x2="14.88" y2="7.51" gradientUnits="userSpaceOnUse">
      <stop offset="0" stop-color="#428e96"/>
      <stop offset="1" stop-color="#293e74"/>
    </linearGradient>
  </defs>
  <rect class="cls-1" width="29.77" height="29.77"/>
  <path class="cls-2" d="m14.88,6.03c-3.49,0-6.32,2.83-6.32,6.32,0,1.05.26,2.05.71,2.92,1.05,2.02,5.6,8.47,5.6,8.47,0,0,4.66-6.52,5.69-8.63.4-.83.63-1.77.63-2.76,0-3.49-2.83-6.32-6.32-6.32Zm0,8.89c-1.42,0-2.57-1.15-2.57-2.57s1.15-2.57,2.57-2.57,2.57,1.15,2.57,2.57-1.15,2.57-2.57,2.57Z"/>
</svg>