<?xml version="1.0" encoding="UTF-8"?>
<svg id="Layer_1" data-name="Layer 1" xmlns="http://www.w3.org/2000/svg" xmlns:xlink="http://www.w3.org/1999/xlink" viewBox="0 0 186 35">
  <defs>
    <style>
      .cls-1 {
        fill: url(#linear-gradient);
      }

      .cls-2 {
        fill: #008180;
      }

      .cls-3 {
        fill: #283f75;
      }

      .cls-4 {
        fill: url(#linear-gradient-8);
      }

      .cls-5 {
        fill: url(#linear-gradient-3);
      }

      .cls-6 {
        fill: url(#linear-gradient-4);
      }

      .cls-7 {
        fill: url(#linear-gradient-2);
      }

      .cls-8 {
        fill: url(#linear-gradient-6);
      }

      .cls-9 {
        fill: url(#linear-gradient-7);
      }

      .cls-10 {
        fill: url(#linear-gradient-5);
      }
    </style>
    <linearGradient id="linear-gradient" x1="23.74" y1="3.64" x2="47.88" y2="23.33" gradientUnits="userSpaceOnUse">
      <stop offset=".36" stop-color="#506aa9"/>
      <stop offset=".39" stop-color="#4a68a2"/>
      <stop offset=".6" stop-color="#255b76"/>
      <stop offset=".76" stop-color="#0d535b"/>
      <stop offset=".86" stop-color="#055151"/>
    </linearGradient>
    <linearGradient id="linear-gradient-2" x1="4.28" y1="10.13" x2="51.52" y2="10.24" gradientUnits="userSpaceOnUse">
      <stop offset=".5" stop-color="#19264a"/>
      <stop offset=".87" stop-color="#4b72af"/>
    </linearGradient>
    <linearGradient id="linear-gradient-3" x1="51.61" y1="17.87" x2="26.18" y2="17.87" gradientUnits="userSpaceOnUse">
      <stop offset="0" stop-color="#418c95"/>
      <stop offset="1" stop-color="#283f75"/>
    </linearGradient>
    <linearGradient id="linear-gradient-4" x1="10.48" y1="9.03" x2="27.8" y2="9.03" gradientUnits="userSpaceOnUse">
      <stop offset="0" stop-color="#418c95"/>
      <stop offset=".4" stop-color="#2a4279"/>
    </linearGradient>
    <linearGradient id="linear-gradient-5" x1="58.36" y1="24.43" x2="30.48" y2="23.16" gradientUnits="userSpaceOnUse">
      <stop offset="0" stop-color="#006e6c"/>
      <stop offset=".5" stop-color="#19264a"/>
      <stop offset=".87" stop-color="#4b72af"/>
    </linearGradient>
    <linearGradient id="linear-gradient-6" x1="31.03" y1="16.25" x2="64.45" y2="16.25" gradientUnits="userSpaceOnUse">
      <stop offset="0" stop-color="#283f75"/>
      <stop offset=".41" stop-color="#13617a"/>
      <stop offset=".77" stop-color="#05787e"/>
      <stop offset="1" stop-color="#008180"/>
    </linearGradient>
    <linearGradient id="linear-gradient-7" x1="50.96" y1="25.09" x2="64.45" y2="25.09" gradientUnits="userSpaceOnUse">
      <stop offset="0" stop-color="#283f75"/>
      <stop offset=".02" stop-color="#244576"/>
      <stop offset=".1" stop-color="#145f7a"/>
      <stop offset=".19" stop-color="#08727d"/>
      <stop offset=".28" stop-color="#027d7f"/>
      <stop offset=".38" stop-color="#008180"/>
    </linearGradient>
    <linearGradient id="linear-gradient-8" x1="7.09" y1="2.77" x2="6.9" y2="32.3" gradientUnits="userSpaceOnUse">
      <stop offset=".03" stop-color="#283d74"/>
      <stop offset=".25" stop-color="#008887"/>
      <stop offset=".5" stop-color="#0baca8"/>
      <stop offset=".58" stop-color="#08a29f"/>
      <stop offset=".71" stop-color="#028887"/>
      <stop offset=".75" stop-color="#007f7e"/>
      <stop offset=".76" stop-color="#04777c"/>
      <stop offset=".82" stop-color="#145d78"/>
      <stop offset=".87" stop-color="#1f4b76"/>
      <stop offset=".93" stop-color="#254074"/>
      <stop offset="1" stop-color="#283d74"/>
    </linearGradient>
  </defs>
  <g>
    <g>
      <path class="cls-1" d="m47.87,17.73v-.88h-2.8c-.04-1.29-.26-2.48-.62-3.51h1.92v-.88h-2.27c-.83-1.75-2.12-2.86-3.59-2.86s-2.76,1.11-3.59,2.86h-2.27v.88h1.92c-.36,1.03-.58,2.22-.62,3.51h-2.8v.88h2.8c.04,1.3.27,2.5.64,3.54h-1.93v.88h2.29c.83,1.73,2.11,2.82,3.58,2.82s2.74-1.09,3.58-2.82h2.29v-.88h-1.93c.37-1.04.59-2.24.64-3.54h2.8Zm-7.37-7.24c.99,0,1.9.76,2.57,1.98h-5.14c.67-1.21,1.58-1.98,2.57-1.98Zm-2.98,2.86h5.96c.4,1.01.65,2.21.7,3.51h-7.36c.05-1.29.3-2.5.7-3.51Zm2.98,10.75c-.98,0-1.88-.75-2.55-1.94h5.1c-.67,1.19-1.57,1.94-2.55,1.94Zm2.97-2.82h-5.93c-.41-1.01-.66-2.23-.71-3.54h7.36c-.05,1.31-.31,2.52-.71,3.54Z"/>
      <path class="cls-7" d="m50.66,8.17v.02c-.27.27-.53.53-.78.78-2.48-2.32-5.83-3.74-9.52-3.74-6.92,0-12.66,5.01-13.64,11.54,0-.04,0-.09,0-.13,0-.04,0-.08,0-.12,0-.09-.02-.17-.03-.25.13-2.72.95-5.46,2.63-7.59l.64-.72c.07.07.13.14.19.21,2.51-2.79,6.17-4.55,10.26-4.55,3.72,0,7.1,1.46,9.56,3.83,0,0,0,0,0,0,.24.23.47.47.7.72Z"/>
      <path class="cls-5" d="m49.87,8.98c-1.01,1.03-1.89,2.06-2.37,3.45-.29.84-.49,1.7-.59,2.58-.01-.03-.02-.07-.03-.1-.01-.03-.02-.06-.03-.09-.09-.26-.2-.51-.33-.75-.01-.02-.02-.04-.04-.07-.06-.11-.11-.21-.17-.31,0-.01-.02-.03-.03-.04-.14-.24-.31-.47-.48-.69,0,0-.01-.02-.02-.03-.09-.11-.17-.21-.26-.31,0,0,0,0,0,0-.19-.21-.4-.42-.62-.61h0c-.33-.29-.69-.54-1.07-.76-1-.57-2.17-.9-3.42-.9-3.78,0-6.84,3.01-6.84,6.72,0,.14,0,.28.01.42.07,1.78-.38,3.4-1.09,5.02-.55,1.24-1.31,2.38-2.26,3.38-.02.03-.05.06-.08.08,0,0,0,0,0,0-.28.31-.57.61-.88.89-2.45,2.27-5.75,3.66-9.38,3.66h-3.42v-6.72h3.42c3.28,0,6.02-2.27,6.69-5.3.1-.46.15-.93.15-1.42h0c0-.1,0-.19,0-.28.2-1.32.59-2.57,1.14-3.74,2.2-4.61,6.97-7.81,12.5-7.81,3.69,0,7.04,1.43,9.52,3.74Z"/>
      <path class="cls-6" d="m29.94,7.96c-.16-.17-.33-.34-.5-.51,0,0,0,0,0,0-2.47-2.37-5.84-3.83-9.56-3.83h-3.42v6.72h3.42c1.25,0,2.41.33,3.42.9h0c.38.22.74.47,1.07.75,0,0,0,0,0,0,.22.19.43.39.62.61,0,0,0,0,0,0,.09.1.18.21.27.32,0,0,.02.02.02.03.17.22.33.45.48.69,0,.01.02.03.02.04.06.1.12.21.18.32.01.02.02.04.03.07.06.13.12.26.18.39.42-2.09,1.72-4.07,3.12-5.77l.64-.72Z"/>
      <path class="cls-10" d="m30.25,25.95v-.02c.27-.27.53-.53.78-.78,2.48,2.32,5.83,3.74,9.52,3.74,6.92,0,12.66-5.01,13.64-11.54,0,.04,0,.09,0,.13,0,.04,0,.08,0,.12,0,.09.02.17.03.25-.13,2.72-.95,5.46-2.63,7.59l-.64.72c-.07-.07-.13-.14-.19-.21-2.51,2.79-6.17,4.55-10.26,4.55-3.72,0-7.1-1.46-9.56-3.83,0,0,0,0,0,0-.24-.23-.47-.47-.7-.72Z"/>
      <path class="cls-8" d="m31.03,25.15c1.01-1.03,1.89-2.06,2.37-3.45.29-.84.49-1.7.59-2.58.01.03.02.07.03.1.01.03.02.06.03.09.09.26.2.51.33.75.01.02.02.04.04.07.06.11.11.21.17.31,0,.01.02.03.03.04.14.24.31.47.48.69,0,0,.01.02.02.03.09.11.17.21.26.31,0,0,0,0,0,0,.19.21.4.42.62.61h0c.33.29.69.54,1.07.76,1,.57,2.17.9,3.42.9,3.78,0,6.84-3.01,6.84-6.72,0-.14,0-.28-.01-.42-.07-1.78.38-3.4,1.09-5.02.55-1.24,1.31-2.38,2.26-3.38.02-.03.05-.06.08-.08,0,0,0,0,0,0,.28-.31.57-.61.88-.89,2.45-2.27,5.75-3.66,9.38-3.66h3.42v6.72h-3.42c-3.28,0-6.02,2.27-6.69,5.3-.1.46-.15.93-.15,1.42h0c0,.1,0,.19,0,.28-.2,1.32-.59,2.57-1.14,3.74-2.2,4.61-6.97,7.81-12.5,7.81-3.69,0-7.04-1.43-9.52-3.74Z"/>
      <path class="cls-9" d="m50.96,26.16c.16.17.33.34.5.51,0,0,0,0,0,0,2.47,2.37,5.84,3.83,9.56,3.83h3.42s0-6.72,0-6.72h-3.42c-1.25,0-2.41-.33-3.42-.9h0c-.38-.22-.74-.47-1.07-.75,0,0,0,0,0,0-.22-.19-.43-.39-.62-.61,0,0,0,0,0,0-.09-.1-.18-.21-.27-.32,0,0-.02-.02-.02-.03-.17-.22-.33-.45-.48-.69,0-.01-.02-.03-.02-.04-.06-.1-.12-.21-.18-.32-.01-.02-.02-.04-.03-.07-.06-.13-.12-.26-.18-.39-.42,2.09-1.72,4.07-3.12,5.77"/>
    </g>
    <g>
      <path class="cls-3" d="m78.18,25.61l-1.52,4.81h-.82l-1.07-3.29c-.03-.08-.06-.18-.08-.29-.01.06-.03.11-.04.16-.01.05-.03.09-.04.14l-1.08,3.29h-.83l-1.52-4.81h.76c.08,0,.15.02.2.06.05.04.09.09.11.15l.83,2.88c.02.07.04.15.05.23.02.08.03.17.05.26.02-.09.04-.18.06-.26s.04-.16.07-.23l.96-2.88c.02-.05.05-.1.11-.14.05-.04.12-.06.19-.06h.27c.08,0,.14.02.19.06.05.04.09.09.11.15l.96,2.88c.05.14.09.3.13.48.03-.17.06-.33.1-.48l.83-2.88c.01-.06.05-.1.1-.14s.12-.06.2-.06h.71Z"/>
      <path class="cls-3" d="m91.34,28.01c0,.35-.06.68-.18.98-.12.3-.29.56-.5.78-.22.22-.48.39-.78.51-.3.12-.64.18-1.02.18s-.71-.06-1.01-.18c-.3-.12-.57-.29-.78-.51-.22-.22-.39-.48-.51-.78-.12-.3-.18-.63-.18-.98s.06-.68.18-.98c.12-.3.29-.56.51-.78.22-.22.48-.39.78-.51.3-.12.64-.18,1.01-.18.25,0,.48.03.7.08.22.06.42.14.6.24.18.1.35.23.49.38.15.15.27.31.37.49s.18.38.23.59c.05.21.08.44.08.67Zm-.93,0c0-.26-.04-.5-.11-.71s-.17-.39-.31-.53-.29-.26-.49-.34c-.19-.08-.41-.12-.64-.12s-.45.04-.64.12c-.19.08-.35.19-.49.34-.13.15-.24.32-.31.53s-.11.45-.11.71.04.5.11.71.18.39.31.53c.13.15.3.26.49.33s.41.12.64.12.45-.04.64-.12c.19-.08.35-.19.49-.33.13-.15.24-.32.31-.53s.11-.45.11-.71Z"/>
      <path class="cls-3" d="m103.96,30.42h-.82c-.16,0-.27-.06-.34-.18l-1.03-1.54c-.04-.06-.08-.1-.13-.12-.05-.02-.11-.04-.2-.04h-.39v1.88h-.91v-4.81h1.49c.33,0,.62.03.85.1s.43.16.59.28c.15.12.26.27.34.44.07.17.11.36.11.56,0,.16-.02.31-.07.46-.05.14-.12.28-.21.39s-.2.22-.34.31c-.13.09-.29.16-.46.21.06.03.11.07.16.12.05.05.09.1.14.16l1.23,1.78Zm-2.34-2.52c.17,0,.32-.02.45-.06s.23-.1.31-.17.14-.16.18-.26.06-.21.06-.34c0-.24-.08-.43-.25-.56-.16-.13-.41-.2-.75-.2h-.58v1.6h.57Z"/>
      <path class="cls-3" d="m115.35,29.68v.74h-2.87v-4.81h.91v4.07h1.96Z"/>
      <path class="cls-3" d="m128.33,28.01c0,.35-.06.68-.18.97-.12.29-.29.55-.5.76-.22.21-.48.38-.78.5-.3.12-.64.18-1.02.18h-1.87v-4.81h1.87c.37,0,.71.06,1.02.18s.57.28.78.5c.22.21.38.47.5.76.12.29.18.62.18.97Zm-.93,0c0-.26-.04-.5-.11-.71s-.17-.39-.31-.53c-.13-.15-.3-.26-.49-.33-.19-.08-.41-.12-.65-.12h-.95v3.39h.95c.24,0,.45-.04.65-.12.19-.08.35-.19.49-.33.13-.15.24-.32.31-.53s.11-.45.11-.71Z"/>
      <path class="cls-3" d="m143.54,25.61l-1.52,4.81h-.82l-1.07-3.29c-.03-.08-.06-.18-.08-.29-.01.06-.03.11-.04.16-.01.05-.03.09-.04.14l-1.08,3.29h-.83l-1.52-4.81h.76c.08,0,.15.02.2.06.05.04.09.09.11.15l.83,2.88c.02.07.04.15.05.23.02.08.03.17.05.26.02-.09.04-.18.06-.26s.04-.16.07-.23l.96-2.88c.02-.05.05-.1.11-.14.05-.04.12-.06.19-.06h.27c.08,0,.14.02.19.06.05.04.09.09.11.15l.96,2.88c.05.14.09.3.13.48.03-.17.06-.33.1-.48l.83-2.88c.01-.06.05-.1.1-.14s.12-.06.2-.06h.71Z"/>
      <path class="cls-3" d="m153.05,30.42h-.91v-4.81h.91v4.81Z"/>
      <path class="cls-3" d="m166.48,28.01c0,.35-.06.68-.18.97-.12.29-.29.55-.5.76-.22.21-.48.38-.78.5-.3.12-.64.18-1.02.18h-1.87v-4.81h1.87c.37,0,.71.06,1.02.18s.57.28.78.5c.22.21.38.47.5.76.12.29.18.62.18.97Zm-.93,0c0-.26-.04-.5-.11-.71s-.17-.39-.31-.53c-.13-.15-.3-.26-.49-.33-.19-.08-.41-.12-.65-.12h-.95v3.39h.95c.24,0,.45-.04.65-.12.19-.08.35-.19.49-.33.13-.15.24-.32.31-.53s.11-.45.11-.71Z"/>
      <path class="cls-3" d="m176.18,26.32v1.33h1.71v.69h-1.71v1.36h2.17v.72h-3.09v-4.81h3.09v.71h-2.17Z"/>
    </g>
    <g>
      <path class="cls-3" d="m79.76,8.16v2.38c0,2.93-1.44,4.52-4.36,4.52h-1.38v6.87h-2.93V3.64h4.31c2.93,0,4.36,1.59,4.36,4.52Zm-5.74-1.91v6.19h1.38c.93,0,1.44-.42,1.44-1.73v-2.74c0-1.31-.51-1.72-1.44-1.72h-1.38Z"/>
      <path class="cls-3" d="m80.58,8.17c0-2.9,1.55-4.55,4.4-4.55s4.4,1.66,4.4,4.55v9.42c0,2.9-1.55,4.55-4.4,4.55s-4.4-1.66-4.4-4.55v-9.42Zm2.9,9.6c0,1.29.58,1.79,1.5,1.79s1.5-.49,1.5-1.79V7.99c0-1.29-.58-1.79-1.5-1.79s-1.5.49-1.5,1.79v9.78Z"/>
      <path class="cls-3" d="m97.08,21.94c-.16-.47-.27-.76-.27-2.25v-2.87c0-1.7-.58-2.33-1.91-2.33h-1.01v7.45h-2.93V3.64h4.41c3.03,0,4.33,1.38,4.33,4.21v1.44c0,1.88-.61,3.08-1.91,3.68v.05c1.46.6,1.94,1.96,1.94,3.87v2.82c0,.89.03,1.54.32,2.22h-2.98Zm-3.19-15.68v5.62h1.14c1.09,0,1.76-.47,1.76-1.93v-1.8c0-1.31-.45-1.88-1.49-1.88h-1.41Z"/>
      <path class="cls-3" d="m100.45,3.64h9.04v2.61h-3.06v15.68h-2.93V6.26h-3.06v-2.61Z"/>
    </g>
    <g>
      <path class="cls-2" d="m156.6,11.35h4.02v2.61h-4.02v5.36h5.05v2.61h-7.98V3.64h7.98v2.61h-5.05v5.1Z"/>
      <path class="cls-2" d="m171.6,15.11v2.43c0,2.93-1.49,4.6-4.36,4.6s-4.36-1.67-4.36-4.6v-9.51c0-2.93,1.49-4.6,4.36-4.6s4.36,1.67,4.36,4.6v1.78h-2.77v-1.96c0-1.31-.59-1.8-1.52-1.8s-1.52.5-1.52,1.8v9.88c0,1.31.58,1.78,1.52,1.78s1.52-.47,1.52-1.78v-2.61h2.77Z"/>
      <path class="cls-2" d="m172.18,3.64h9.04v2.61h-3.06v15.68h-2.93V6.26h-3.06v-2.61Z"/>
    </g>
    <path class="cls-2" d="m124.3,15.11v2.43c0,2.93-1.49,4.6-4.36,4.6s-4.36-1.67-4.36-4.6v-9.51c0-2.93,1.49-4.6,4.36-4.6s4.36,1.67,4.36,4.6v1.78h-2.77v-1.96c0-1.31-.59-1.8-1.52-1.8s-1.52.5-1.52,1.8v9.88c0,1.31.58,1.78,1.52,1.78s1.52-.47,1.52-1.78v-2.61h2.77Z"/>
    <path class="cls-2" d="m125.5,8.03c0-2.93,1.57-4.6,4.44-4.6s4.44,1.67,4.44,4.6v9.51c0,2.93-1.57,4.6-4.44,4.6s-4.44-1.67-4.44-4.6v-9.51Zm2.93,9.7c0,1.31.58,1.8,1.52,1.8s1.52-.5,1.52-1.8V7.85c0-1.31-.59-1.8-1.52-1.8s-1.52.5-1.52,1.8v9.88Z"/>
    <path class="cls-2" d="m138.51,8.73h-.05v13.42h-2.67V3.62h3.72l2.99,11.09h.05V3.62h2.64v18.53h-3.04l-3.64-13.42Z"/>
    <path class="cls-2" d="m145.46,8.73h-.05v13.42h-2.67V3.62h3.72l2.99,11.09h.05V3.62h2.64v18.53h-3.04l-3.64-13.42Z"/>
  </g>
  <rect class="cls-4" x="6" y="2.97" width="2" height="28" rx="1" ry="1"/>
</svg>