<?xml version="1.0" encoding="UTF-8"?>
<svg id="Layer_1" data-name="Layer 1" xmlns="http://www.w3.org/2000/svg" xmlns:xlink="http://www.w3.org/1999/xlink" viewBox="0 0 174 35">
  <defs>
    <style>
      .cls-1 {
        fill: url(#linear-gradient);
      }

      .cls-2 {
        fill: #283f75;
      }

      .cls-3 {
        fill: url(#linear-gradient-8);
      }

      .cls-4 {
        fill: url(#linear-gradient-3);
      }

      .cls-5 {
        fill: url(#linear-gradient-4);
      }

      .cls-6 {
        fill: url(#linear-gradient-2);
      }

      .cls-7 {
        fill: url(#linear-gradient-6);
      }

      .cls-8 {
        fill: url(#linear-gradient-7);
      }

      .cls-9 {
        fill: url(#linear-gradient-5);
      }
    </style>
    <linearGradient id="linear-gradient" x1="63.59" y1="3.78" x2="63.4" y2="33.32" gradientUnits="userSpaceOnUse">
      <stop offset=".03" stop-color="#283d74"/>
      <stop offset=".25" stop-color="#008887"/>
      <stop offset=".5" stop-color="#0baca8"/>
      <stop offset=".58" stop-color="#08a29f"/>
      <stop offset=".71" stop-color="#028887"/>
      <stop offset=".75" stop-color="#007f7e"/>
      <stop offset=".76" stop-color="#04777c"/>
      <stop offset=".82" stop-color="#145d78"/>
      <stop offset=".87" stop-color="#1f4b76"/>
      <stop offset=".93" stop-color="#254074"/>
      <stop offset="1" stop-color="#283d74"/>
    </linearGradient>
    <linearGradient id="linear-gradient-2" x1="11.75" y1="4.56" x2="35.89" y2="24.25" gradientUnits="userSpaceOnUse">
      <stop offset=".36" stop-color="#506aa9"/>
      <stop offset=".39" stop-color="#4a68a2"/>
      <stop offset=".6" stop-color="#255b76"/>
      <stop offset=".76" stop-color="#0d535b"/>
      <stop offset=".86" stop-color="#055151"/>
    </linearGradient>
    <linearGradient id="linear-gradient-3" x1="-7.71" y1="11.05" x2="39.53" y2="11.16" gradientUnits="userSpaceOnUse">
      <stop offset=".5" stop-color="#19264a"/>
      <stop offset=".87" stop-color="#4b72af"/>
    </linearGradient>
    <linearGradient id="linear-gradient-4" x1="39.62" y1="18.79" x2="14.19" y2="18.79" gradientUnits="userSpaceOnUse">
      <stop offset="0" stop-color="#418c95"/>
      <stop offset="1" stop-color="#283f75"/>
    </linearGradient>
    <linearGradient id="linear-gradient-5" x1="-1.51" y1="9.96" x2="15.81" y2="9.96" gradientUnits="userSpaceOnUse">
      <stop offset="0" stop-color="#418c95"/>
      <stop offset=".4" stop-color="#2a4279"/>
    </linearGradient>
    <linearGradient id="linear-gradient-6" x1="46.37" y1="25.35" x2="18.49" y2="24.08" gradientUnits="userSpaceOnUse">
      <stop offset="0" stop-color="#006e6c"/>
      <stop offset=".5" stop-color="#19264a"/>
      <stop offset=".87" stop-color="#4b72af"/>
    </linearGradient>
    <linearGradient id="linear-gradient-7" x1="19.04" y1="17.17" x2="52.46" y2="17.17" gradientUnits="userSpaceOnUse">
      <stop offset="0" stop-color="#283f75"/>
      <stop offset=".41" stop-color="#13617a"/>
      <stop offset=".77" stop-color="#05787e"/>
      <stop offset="1" stop-color="#008180"/>
    </linearGradient>
    <linearGradient id="linear-gradient-8" x1="38.97" y1="26.01" x2="52.46" y2="26.01" gradientUnits="userSpaceOnUse">
      <stop offset="0" stop-color="#283f75"/>
      <stop offset=".02" stop-color="#244576"/>
      <stop offset=".1" stop-color="#145f7a"/>
      <stop offset=".19" stop-color="#08727d"/>
      <stop offset=".28" stop-color="#027d7f"/>
      <stop offset=".38" stop-color="#008180"/>
    </linearGradient>
  </defs>
  <rect class="cls-1" x="63" y="3.98" width="1" height="28" rx=".5" ry=".5"/>
  <g>
    <path class="cls-6" d="m35.88,18.65v-.88h-2.8c-.04-1.29-.26-2.48-.62-3.51h1.92v-.88h-2.27c-.83-1.75-2.12-2.86-3.59-2.86s-2.76,1.11-3.59,2.86h-2.27v.88h1.92c-.36,1.03-.58,2.22-.62,3.51h-2.8v.88h2.8c.04,1.3.27,2.5.64,3.54h-1.93v.88h2.29c.83,1.73,2.11,2.82,3.58,2.82s2.74-1.09,3.58-2.82h2.29v-.88h-1.93c.37-1.04.59-2.24.64-3.54h2.8Zm-7.37-7.24c.99,0,1.9.76,2.57,1.98h-5.14c.67-1.21,1.58-1.98,2.57-1.98Zm-2.98,2.86h5.96c.4,1.01.65,2.21.7,3.51h-7.36c.05-1.29.3-2.5.7-3.51Zm2.98,10.75c-.98,0-1.88-.75-2.55-1.94h5.1c-.67,1.19-1.57,1.94-2.55,1.94Zm2.97-2.82h-5.93c-.41-1.01-.66-2.23-.71-3.54h7.36c-.05,1.31-.31,2.52-.71,3.54Z"/>
    <path class="cls-4" d="m38.67,9.09v.02c-.27.27-.53.53-.78.78-2.48-2.32-5.83-3.74-9.52-3.74-6.92,0-12.66,5.01-13.64,11.54,0-.04,0-.09,0-.13,0-.04,0-.08,0-.12,0-.09-.02-.17-.03-.25.13-2.72.95-5.46,2.63-7.59l.64-.72c.07.07.13.14.19.21,2.51-2.79,6.17-4.55,10.26-4.55,3.72,0,7.1,1.46,9.56,3.83,0,0,0,0,0,0,.24.23.47.47.7.72Z"/>
    <path class="cls-5" d="m37.88,9.9c-1.01,1.03-1.89,2.06-2.37,3.45-.29.84-.49,1.7-.59,2.58-.01-.03-.02-.07-.03-.1-.01-.03-.02-.06-.03-.09-.09-.26-.2-.51-.33-.75-.01-.02-.02-.04-.04-.07-.06-.11-.11-.21-.17-.31,0-.01-.02-.03-.03-.04-.14-.24-.31-.47-.48-.69,0,0-.01-.02-.02-.03-.09-.11-.17-.21-.26-.31,0,0,0,0,0,0-.19-.21-.4-.42-.62-.61h0c-.33-.29-.69-.54-1.07-.76-1-.57-2.17-.9-3.42-.9-3.78,0-6.84,3.01-6.84,6.72,0,.14,0,.28.01.42.07,1.78-.38,3.4-1.09,5.02-.55,1.24-1.31,2.38-2.26,3.38-.02.03-.05.06-.08.08,0,0,0,0,0,0-.28.31-.57.61-.88.89-2.45,2.27-5.75,3.66-9.38,3.66h-3.42v-6.72h3.42c3.28,0,6.02-2.27,6.69-5.3.1-.46.15-.93.15-1.42h0c0-.1,0-.19,0-.28.2-1.32.59-2.57,1.14-3.74,2.2-4.61,6.97-7.81,12.5-7.81,3.69,0,7.04,1.43,9.52,3.74Z"/>
    <path class="cls-9" d="m17.95,8.88c-.16-.17-.33-.34-.5-.51,0,0,0,0,0,0-2.47-2.37-5.84-3.83-9.56-3.83h-3.42v6.72h3.42c1.25,0,2.41.33,3.42.9h0c.38.22.74.47,1.07.75,0,0,0,0,0,0,.22.19.43.39.62.61,0,0,0,0,0,0,.09.1.18.21.27.32,0,0,.02.02.02.03.17.22.33.45.48.69,0,.01.02.03.02.04.06.1.12.21.18.32.01.02.02.04.03.07.06.13.12.26.18.39.42-2.09,1.72-4.07,3.12-5.77l.64-.72Z"/>
    <path class="cls-7" d="m18.26,26.87v-.02c.27-.27.53-.53.78-.78,2.48,2.32,5.83,3.74,9.52,3.74,6.92,0,12.66-5.01,13.64-11.54,0,.04,0,.09,0,.13,0,.04,0,.08,0,.12,0,.09.02.17.03.25-.13,2.72-.95,5.46-2.63,7.59l-.64.72c-.07-.07-.13-.14-.19-.21-2.51,2.79-6.17,4.55-10.26,4.55-3.72,0-7.1-1.46-9.56-3.83,0,0,0,0,0,0-.24-.23-.47-.47-.7-.72Z"/>
    <path class="cls-8" d="m19.04,26.07c1.01-1.03,1.89-2.06,2.37-3.45.29-.84.49-1.7.59-2.58.01.03.02.07.03.1.01.03.02.06.03.09.09.26.2.51.33.75.01.02.02.04.04.07.06.11.11.21.17.31,0,.01.02.03.03.04.14.24.31.47.48.69,0,0,.01.02.02.03.09.11.17.21.26.31,0,0,0,0,0,0,.19.21.4.42.62.61h0c.33.29.69.54,1.07.76,1,.57,2.17.9,3.42.9,3.78,0,6.84-3.01,6.84-6.72,0-.14,0-.28-.01-.42-.07-1.78.38-3.4,1.09-5.02.55-1.24,1.31-2.38,2.26-3.38.02-.03.05-.06.08-.08,0,0,0,0,0,0,.28-.31.57-.61.88-.89,2.45-2.27,5.75-3.66,9.38-3.66h3.42v6.72h-3.42c-3.28,0-6.02,2.27-6.69,5.3-.1.46-.15.93-.15,1.42h0c0,.1,0,.19,0,.28-.2,1.32-.59,2.57-1.14,3.74-2.2,4.61-6.97,7.81-12.5,7.81-3.69,0-7.04-1.43-9.52-3.74Z"/>
    <path class="cls-3" d="m38.97,27.08c.16.17.33.34.5.51,0,0,0,0,0,0,2.47,2.37,5.84,3.83,9.56,3.83h3.42s0-6.72,0-6.72h-3.42c-1.25,0-2.41-.33-3.42-.9h0c-.38-.22-.74-.47-1.07-.75,0,0,0,0,0,0-.22-.19-.43-.39-.62-.61,0,0,0,0,0,0-.09-.1-.18-.21-.27-.32,0,0-.02-.02-.02-.03-.17-.22-.33-.45-.48-.69,0-.01-.02-.03-.02-.04-.06-.1-.12-.21-.18-.32-.01-.02-.02-.04-.03-.07-.06-.13-.12-.26-.18-.39-.42,2.09-1.72,4.07-3.12,5.77"/>
  </g>
  <g>
    <path class="cls-2" d="m77.43,7.79v1.91c0,2.35-1.13,3.62-3.43,3.62h-1.09v5.51h-2.3V4.17h3.39c2.3,0,3.43,1.28,3.43,3.62Zm-4.52-1.53v4.96h1.09c.73,0,1.13-.33,1.13-1.38v-2.2c0-1.05-.4-1.38-1.13-1.38h-1.09Z"/>
    <path class="cls-2" d="m80.8,10.34h3.16v2.09h-3.16v4.29h3.98v2.09h-6.28V4.17h6.28v2.09h-3.98v4.08Z"/>
    <path class="cls-2" d="m88.29,8.21h-.04v10.62h-2.07V4.17h2.89l2.32,8.77h.04V4.17h2.05v14.66h-2.37l-2.83-10.62Z"/>
    <path class="cls-2" d="m97.23,8.21h-.04v10.62h-2.07V4.17h2.89l2.32,8.77h.04V4.17h2.05v14.66h-2.37l-2.83-10.62Z"/>
    <path class="cls-2" d="m106.23,13.97l-2.91-9.8h2.41l1.74,6.68h.04l1.74-6.68h2.2l-2.91,9.8v4.86h-2.3v-4.86Z"/>
    <path class="cls-2" d="m122.49,7.54v.52c0,1.51-.46,2.45-1.49,2.93v.04c1.24.48,1.72,1.57,1.72,3.12v1.19c0,2.26-1.19,3.48-3.5,3.48h-3.62V4.17h3.48c2.39,0,3.41,1.11,3.41,3.37Zm-4.58-1.28v3.87h.9c.86,0,1.38-.38,1.38-1.55v-.82c0-1.05-.36-1.51-1.17-1.51h-1.11Zm0,5.97v4.5h1.32c.78,0,1.19-.36,1.19-1.44v-1.28c0-1.36-.44-1.78-1.49-1.78h-1.03Z"/>
    <path class="cls-2" d="m126.41,10.34h3.16v2.09h-3.16v4.29h3.98v2.09h-6.28V4.17h6.28v2.09h-3.98v4.08Z"/>
    <path class="cls-2" d="m138.48,13.36v1.95c0,2.34-1.17,3.68-3.43,3.68s-3.43-1.34-3.43-3.68v-7.62c0-2.34,1.17-3.68,3.43-3.68s3.43,1.34,3.43,3.68v1.42h-2.18v-1.57c0-1.05-.46-1.44-1.19-1.44s-1.19.4-1.19,1.44v7.91c0,1.05.46,1.42,1.19,1.42s1.19-.38,1.19-1.42v-2.09h2.18Z"/>
    <path class="cls-2" d="m142.9,12.98l-.71,1.34v4.5h-2.3V4.17h2.3v6.34h.04l2.97-6.34h2.3l-3.2,6.53,3.2,8.12h-2.37l-2.24-5.84Z"/>
    <path class="cls-2" d="m150.85,10.34h3.16v2.09h-3.16v4.29h3.98v2.09h-6.28V4.17h6.28v2.09h-3.98v4.08Z"/>
    <path class="cls-2" d="m155.58,4.17h7.12v2.09h-2.41v12.56h-2.3V6.26h-2.41v-2.09Z"/>
    <path class="cls-2" d="m163.03,4.17h7.12v2.09h-2.41v12.56h-2.3V6.26h-2.41v-2.09Z"/>
    <path class="cls-2" d="m78.16,27.69c0,.63-.1,1.21-.3,1.73s-.48.96-.85,1.33c-.37.37-.8.65-1.32.86-.51.2-1.08.3-1.7.3h-3.15v-8.44h3.15c.62,0,1.19.1,1.7.3.51.2.95.49,1.32.86.36.37.65.82.85,1.33s.3,1.09.3,1.72Zm-1.17,0c0-.52-.07-.98-.21-1.39-.14-.41-.34-.75-.6-1.04-.26-.28-.57-.5-.94-.65-.37-.15-.78-.22-1.24-.22h-2.01v6.59h2.01c.46,0,.87-.07,1.24-.22.37-.15.68-.36.94-.64.26-.28.46-.63.6-1.03.14-.41.21-.87.21-1.39Z"/>
    <path class="cls-2" d="m80.76,24.07c0,.1-.02.2-.06.28-.04.09-.1.17-.17.24-.07.07-.15.12-.24.16-.09.04-.19.06-.29.06s-.2-.02-.28-.06c-.09-.04-.17-.09-.23-.16-.07-.07-.12-.15-.16-.24-.04-.09-.06-.18-.06-.28s.02-.2.06-.29c.04-.09.09-.17.16-.24.07-.07.14-.12.23-.16.09-.04.18-.06.28-.06s.2.02.29.06c.09.04.17.09.24.16.07.07.12.15.17.24.04.09.06.19.06.29Zm-.22,1.87v5.96h-1.05v-5.96h1.05Z"/>
    <path class="cls-2" d="m83.25,27.14c.19-.41.42-.73.69-.96.27-.23.61-.34,1.01-.34.13,0,.25.01.36.04.12.03.22.07.31.13l-.08.78c-.02.1-.08.15-.18.15-.05,0-.14-.01-.24-.04-.11-.02-.23-.04-.36-.04-.19,0-.36.03-.5.08s-.28.14-.39.24c-.11.11-.22.24-.31.4s-.18.34-.25.54v3.77h-1.05v-5.96h.6c.11,0,.19.02.24.07.04.04.07.12.09.22l.07.91Z"/>
    <path class="cls-2" d="m91.14,31.07c-.13.16-.28.29-.47.41-.18.12-.37.21-.58.29s-.42.13-.64.17c-.22.04-.44.06-.65.06-.41,0-.79-.07-1.14-.21s-.65-.34-.9-.61c-.25-.27-.45-.6-.59-1-.14-.4-.21-.85-.21-1.37,0-.42.06-.8.19-1.17.13-.36.31-.67.55-.94.24-.26.53-.47.88-.62.34-.15.73-.23,1.17-.23.36,0,.69.06.99.18.3.12.57.29.79.52.22.23.4.5.52.84.13.33.19.71.19,1.13,0,.16-.02.27-.05.33s-.1.08-.2.08h-3.98c.01.38.06.7.16.98s.22.51.39.7.36.33.59.42c.23.09.48.14.77.14.26,0,.49-.03.68-.09s.35-.13.49-.2c.14-.07.25-.14.34-.2.09-.06.17-.09.24-.09.09,0,.15.03.2.1l.3.38Zm-.85-2.8c0-.24-.03-.47-.1-.67-.07-.2-.17-.38-.3-.52-.13-.15-.29-.26-.48-.34s-.4-.12-.64-.12c-.5,0-.9.15-1.19.44-.29.29-.47.7-.55,1.22h3.26Z"/>
    <path class="cls-2" d="m96.67,27s-.06.08-.09.1c-.03.02-.08.04-.13.04-.06,0-.12-.02-.2-.07-.07-.05-.16-.1-.26-.16-.1-.06-.23-.11-.38-.16s-.34-.07-.56-.07c-.29,0-.55.05-.78.16s-.41.25-.56.45-.26.43-.34.71-.11.59-.11.94.04.68.12.96c.08.28.2.52.35.71s.33.34.55.44c.21.1.45.15.72.15s.47-.03.63-.09c.16-.06.3-.13.41-.2.11-.07.2-.14.27-.2.07-.06.14-.09.21-.09.09,0,.15.03.2.1l.29.38c-.13.16-.28.3-.44.41-.16.11-.34.21-.53.29-.19.08-.39.13-.6.17s-.42.05-.64.05c-.37,0-.72-.07-1.04-.21-.32-.14-.6-.34-.83-.6-.24-.26-.42-.58-.55-.96s-.2-.81-.2-1.3c0-.44.06-.85.19-1.23.12-.38.31-.7.54-.97.24-.27.53-.49.88-.64.35-.15.75-.23,1.2-.23.42,0,.79.07,1.11.2.32.14.6.33.85.57l-.28.38Z"/>
    <path class="cls-2" d="m99.97,32c-.47,0-.83-.13-1.09-.39-.25-.26-.38-.64-.38-1.14v-3.65h-.72c-.06,0-.12-.02-.16-.06-.04-.04-.07-.1-.07-.17v-.42l.98-.12.24-1.84c.01-.06.04-.11.08-.14.04-.04.09-.06.16-.06h.53v2.05h1.73v.76h-1.73v3.58c0,.25.06.44.18.56.12.12.28.18.47.18.11,0,.2-.01.28-.04s.15-.06.21-.1c.06-.04.11-.07.15-.1.04-.03.08-.04.11-.04.05,0,.1.03.15.1l.31.5c-.18.17-.4.3-.65.4-.26.1-.52.14-.79.14Z"/>
    <path class="cls-2" d="m104.85,25.85c.44,0,.83.07,1.18.22.35.14.65.35.89.62.25.27.44.59.57.97.13.38.2.8.2,1.27s-.07.89-.2,1.27-.32.7-.57.97c-.25.27-.55.47-.89.62-.35.14-.74.21-1.18.21s-.84-.07-1.19-.21c-.35-.14-.65-.35-.9-.62-.25-.27-.44-.59-.57-.97s-.2-.8-.2-1.27.07-.89.2-1.27c.13-.38.32-.7.57-.97.25-.27.55-.47.9-.62.35-.15.75-.22,1.19-.22Zm0,5.32c.59,0,1.03-.2,1.32-.59.29-.39.44-.94.44-1.65s-.14-1.26-.44-1.66c-.29-.4-.73-.59-1.32-.59-.3,0-.56.05-.78.15-.22.1-.41.25-.55.44-.15.19-.26.43-.33.71-.07.28-.11.6-.11.95,0,.71.15,1.26.44,1.65.29.39.74.59,1.33.59Z"/>
    <path class="cls-2" d="m110,27.14c.19-.41.42-.73.69-.96.27-.23.61-.34,1.01-.34.13,0,.25.01.36.04.11.03.22.07.31.13l-.08.78c-.02.1-.08.15-.18.15-.05,0-.14-.01-.24-.04-.11-.02-.23-.04-.36-.04-.19,0-.36.03-.5.08-.15.05-.28.14-.39.24-.12.11-.22.24-.31.4-.09.16-.18.34-.25.54v3.77h-1.05v-5.96h.6c.11,0,.19.02.24.07.04.04.07.12.09.22l.07.91Z"/>
  </g>
</svg>